<?xml version="1.0" encoding="utf-8"?>
<!-- Generator: Adobe Illustrator 24.0.3, SVG Export Plug-In . SVG Version: 6.00 Build 0)  -->
<svg version="1.1" xmlns="http://www.w3.org/2000/svg" xmlns:xlink="http://www.w3.org/1999/xlink" x="0px" y="0px"
	 viewBox="0 0 402.52 179.33" style="enable-background:new 0 0 402.52 179.33;" xml:space="preserve">
<style type="text/css">
	.st0{fill:#FFFFFF;}
</style>
<g id="Guitar">
	<g>
		<path class="st0" d="M50.42,109.63c2.26,1.15,3.85,3.4,4.03,5.69c0.18,2.29-1.05,4.54-3.13,5.7c-1.44,0.81-3.18,1.09-4.8,1.59
			c-3.7,1.14-6.85,3.53-8.73,6.62c-1.13,1.86-1.82,4.01-1.55,6.2c0.44,3.49,3.18,6.47,5.79,9.18c2.93,3.05,5.85,6.1,8.78,9.14"/>
		<g>
			<path class="st0" d="M50.08,109.87c3.51,1.9,5.4,6.49,2.45,9.78c-1.57,1.75-3.96,2.02-6.09,2.68c-1.58,0.49-3.09,1.2-4.47,2.12
				c-2.89,1.93-5.41,4.94-6.08,8.42c-0.74,3.84,1.42,7.16,3.86,9.91c3.4,3.84,7.1,7.45,10.65,11.16c0.25,0.26,1.08-0.08,0.8-0.37
				c-3.22-3.35-6.47-6.67-9.65-10.06c-2.85-3.04-5.76-6.69-4.69-11.14c1-4.13,4.53-7.39,8.34-8.98c3.25-1.36,7.2-1.38,9.02-4.91
				c1.79-3.48-0.26-7.34-3.47-9.08C50.45,109.22,49.68,109.65,50.08,109.87L50.08,109.87z"/>
		</g>
	</g>
	<g>
		<path class="st0" d="M70.89,160.44c9.91-3.56,17.62-5.21,20.74-12.21c2-4.48,0.18-9.93-3.11-13.71c-1.75-2.01-3.9-3.72-5.26-6
			c-2.62-4.42-1.34-10.61,2.8-13.59c2.07-1.49,4.63-2.18,6.87-3.4c2.25-1.22,4.33-3.31,4.25-5.84c-0.1-3.28-3.56-5.39-6.58-6.87
			c-1.87-0.92-3.74-1.83-5.61-2.75"/>
		<g>
			<path class="st0" d="M70.97,160.75c5.57-1.99,11.9-3.44,16.71-7.06c1.96-1.48,3.6-3.45,4.51-5.75c1.12-2.83,0.81-5.98-0.3-8.76
				c-1.31-3.27-3.68-5.54-6.04-8.06c-2.37-2.52-3.84-5.44-3.44-8.97c0.39-3.47,2.4-6.34,5.48-7.94c2.9-1.51,6.28-2.31,8.4-4.98
				c5.5-6.91-6.65-11.3-11.05-13.46c-0.37-0.18-1,0.36-0.5,0.6c3.17,1.55,6.75,2.87,9.5,5.12c1.06,0.87,2.02,1.97,2.36,3.33
				c0.47,1.92-0.47,3.72-1.85,5c-2.44,2.26-5.91,2.84-8.64,4.66c-2.09,1.39-3.56,3.52-4.24,5.92c-0.71,2.52-0.55,5.28,0.61,7.64
				c1.42,2.89,4.14,4.79,6.11,7.27c2,2.52,3.43,5.72,3.4,8.99c-0.02,2.84-1.29,5.47-3.24,7.5c-2.05,2.13-4.77,3.48-7.47,4.58
				c-3.44,1.41-7.01,2.5-10.5,3.75C70.29,160.32,70.44,160.94,70.97,160.75L70.97,160.75z"/>
		</g>
	</g>
	<g>
		<path class="st0" d="M50.42,109.59c-1.88-1.23-4.47-2.31-5.16-4.49s-0.29-4.46,0.38-6.56c0.88-2.77,2.26-5.42,4.43-7.45
			c1.15-1.07,2.56-1.97,4.21-2.26c1.36-0.24,2.8-0.06,4.21,0.12c2.76,0.36,5.57,0.74,8.1,1.92"/>
		<g>
			<path class="st0" d="M50.83,109.45c-2.16-1.39-4.77-2.45-5.33-5.23c-0.64-3.16,0.62-6.7,2.13-9.45c1.75-3.19,4.57-6.07,8.46-5.86
				c3.35,0.18,7.02,0.73,10.09,2.12c0.23,0.1,0.91-0.25,0.82-0.29c-1.76-0.79-3.61-1.25-5.51-1.57c-1.77-0.29-3.61-0.61-5.41-0.62
				c-3.17-0.02-5.81,1.64-7.75,4.06c-2.19,2.72-3.82,6.57-3.85,10.1c-0.02,1.67,0.38,3.24,1.61,4.42c1.14,1.09,2.61,1.78,3.93,2.63
				C50.21,109.87,50.94,109.52,50.83,109.45L50.83,109.45z"/>
		</g>
	</g>
	<g>
		<path class="st0" d="M74.69,89.12c2.32-14.4,5.73-28.58,10.22-42.42"/>
		<g>
			<path class="st0" d="M75.13,89.07c2.33-14.38,5.74-28.56,10.22-42.42c0.1-0.31-0.77-0.19-0.87,0.11
				C80,60.61,76.58,74.79,74.26,89.17C74.2,89.52,75.08,89.37,75.13,89.07L75.13,89.07z"/>
		</g>
	</g>
	<g>
		<path class="st0" d="M82.83,89.45c1.14-13.35,3.9-26.49,8.2-39.11"/>
		<g>
			<path class="st0" d="M83.27,89.33c1.16-13.3,3.9-26.43,8.19-39.07c0.04-0.13-0.78-0.05-0.85,0.16
				c-4.3,12.67-7.05,25.81-8.21,39.14C82.39,89.65,83.25,89.57,83.27,89.33L83.27,89.33z"/>
		</g>
	</g>
	<g>
		<path class="st0" d="M65.3,112.58c-1.09,0.79-2.24,1.65-2.62,2.9c-0.45,1.48,0.35,3.16,1.58,4.31c1.23,1.15,2.83,1.87,4.39,2.58
			c0.6,0.27,1.33-0.08,1.95-0.21c0.64-0.13,0.99-0.01,1.47-0.4c0.67-0.56,1.52-0.95,2.14-1.56c1.72-1.71,0.98-4.87-1.18-6.35
			C70.89,112.35,67.51,111.42,65.3,112.58"/>
		<g>
			<path class="st0" d="M64.97,112.56c-1,0.72-2.1,1.51-2.6,2.67c-0.51,1.2-0.15,2.53,0.53,3.57c0.75,1.13,1.85,1.94,3.03,2.59
				c1.12,0.62,2.39,1.45,3.71,1.17c0.61-0.13,1.22-0.23,1.83-0.36c0.63-0.13,1.04-0.53,1.56-0.88c0.96-0.65,1.96-1.23,2.37-2.38
				c0.8-2.22-0.63-4.51-2.51-5.62c-2.29-1.35-5.36-2.06-7.84-0.81c-0.51,0.26,0.29,0.25,0.51,0.14c2-1.01,4.71-0.09,6.51,0.97
				c1.63,0.96,2.86,2.7,2.65,4.67c-0.12,1.07-0.7,1.86-1.56,2.46c-0.44,0.31-0.91,0.58-1.34,0.91c-0.4,0.31-0.93,0.26-1.42,0.38
				c-0.26,0.06-0.52,0.17-0.79,0.21c-0.47,0.07-0.86-0.18-1.27-0.37c-0.54-0.25-1.08-0.51-1.6-0.79c-1.04-0.58-2.06-1.28-2.78-2.24
				c-0.72-0.96-1.21-2.24-0.85-3.44c0.38-1.25,1.51-2.07,2.53-2.8C66,112.35,65.14,112.44,64.97,112.56L64.97,112.56z"/>
		</g>
	</g>
	<g>
		<path class="st0" d="M76.56,85.1c1.79,0.88,3.92,1.11,5.78,0.62"/>
		<g>
			<path class="st0" d="M76.22,85.32c1.91,0.93,4.12,1.16,6.19,0.64c0.14-0.04,0.42-0.17,0.37-0.36c-0.05-0.19-0.37-0.16-0.5-0.12
				c-1.79,0.46-3.72,0.2-5.37-0.6c-0.19-0.09-0.45-0.04-0.62,0.07C76.17,85.03,76.02,85.23,76.22,85.32L76.22,85.32z"/>
		</g>
	</g>
	<g>
		<path class="st0" d="M78.01,74.42c1.65,1.24,4.11,1.45,5.82,0.5"/>
		<g>
			<path class="st0" d="M77.67,74.64c1.83,1.35,4.45,1.51,6.44,0.43c0.15-0.08,0.23-0.27,0.07-0.38c-0.18-0.12-0.45-0.02-0.62,0.07
				c-1.63,0.88-3.76,0.49-5.21-0.57C78.1,74.01,77.31,74.38,77.67,74.64L77.67,74.64z"/>
		</g>
	</g>
	<g>
		<path class="st0" d="M79.72,65.05c1.71,1.26,4.27,1.38,5.93,0.28"/>
		<g>
			<path class="st0" d="M79.31,65.19c1.9,1.37,4.71,1.41,6.67,0.14c0.14-0.09,0.11-0.16-0.05-0.17c-0.19-0.01-0.45,0.06-0.61,0.16
				c-1.57,1.02-3.74,0.63-5.19-0.42c-0.13-0.09-0.43,0.01-0.56,0.06C79.52,64.98,79.19,65.11,79.31,65.19L79.31,65.19z"/>
		</g>
	</g>
	<g>
		<path class="st0" d="M83.69,55.7c1.42,0.86,3.2,1.2,4.8,0.9"/>
		<g>
			<path class="st0" d="M83.28,55.86c1.53,0.92,3.37,1.26,5.13,0.95c0.14-0.02,0.47-0.09,0.5-0.27c0.04-0.17-0.27-0.15-0.36-0.14
				c-1.53,0.27-3.13-0.07-4.46-0.86c-0.17-0.1-0.4-0.05-0.57,0.02C83.47,55.58,83.13,55.77,83.28,55.86L83.28,55.86z"/>
		</g>
	</g>
	<g>
		<path class="st0" d="M85.5,28.52c-0.21-0.36-2.63,0.01-2.76,0.38c-0.43,1.29,1.48,2.17,1.91,2.17"/>
		<g>
			<path class="st0" d="M85.94,28.41c-0.1-0.16-0.29-0.2-0.46-0.22c-0.24-0.03-0.48-0.03-0.72-0.01c-0.56,0.04-1.13,0.13-1.67,0.3
				c-0.22,0.07-0.45,0.16-0.63,0.31c-0.19,0.17-0.22,0.45-0.2,0.69c0.04,0.52,0.43,0.95,0.83,1.24c0.39,0.28,0.9,0.56,1.39,0.57
				c0.19,0,0.46-0.07,0.58-0.23c0.12-0.16-0.11-0.21-0.22-0.21c-0.05,0,0.1,0.02,0.05,0c-0.01,0-0.03,0-0.04-0.01
				c-0.03-0.01-0.13-0.04-0.03,0c-0.08-0.02-0.15-0.05-0.23-0.08c-0.19-0.07-0.37-0.17-0.52-0.26c-0.36-0.23-0.73-0.54-0.88-0.95
				c-0.08-0.21-0.09-0.43-0.03-0.65c0.01-0.02,0.02-0.05,0.02-0.07c0.01-0.04-0.03,0.06-0.01,0.02c0.04-0.05-0.07,0.05,0,0
				c0.05-0.04-0.09,0.05,0,0c0.04-0.02,0.07-0.02-0.04,0.01c0.02-0.01,0.05-0.02,0.07-0.03c0.04-0.01,0.09-0.02,0.12-0.04
				c0,0-0.12,0.04-0.05,0.02c0.02-0.01,0.05-0.01,0.07-0.02c0.11-0.03,0.23-0.05,0.33-0.08c-0.13,0.05,0.01,0,0.05-0.01
				c0.06-0.01,0.11-0.02,0.17-0.03c0.12-0.02,0.23-0.03,0.35-0.05c0.03,0,0.06-0.01,0.09-0.01c0.05,0,0.04,0-0.02,0
				c0.02,0,0.04,0,0.06,0c0.06,0,0.13-0.01,0.19-0.01c0.05,0,0.1,0,0.15,0c0.02,0,0.05,0,0.07,0c0.1,0-0.04-0.01,0.02,0
				c0.05,0,0.09,0.01,0.14,0.02c0.01,0,0.02,0,0.04,0.01c0.08,0.01-0.04-0.02,0,0c0.03,0.01,0.06,0.02,0.09,0.04
				c-0.08-0.04,0.02,0.05-0.01-0.01C85.23,28.9,86.05,28.59,85.94,28.41L85.94,28.41z"/>
		</g>
	</g>
	<g>
		<path class="st0" d="M82.07,34.41c-0.73-0.01-1.55,0-2.04,0.46c-0.49,0.46-0.23,1.52,0.51,1.53"/>
		<g>
			<path class="st0" d="M82.36,34.25c-0.86-0.02-1.83,0.03-2.56,0.54c-0.24,0.17-0.39,0.38-0.44,0.66c-0.04,0.24,0,0.49,0.13,0.7
				c0.17,0.28,0.44,0.41,0.77,0.42c0.2,0.01,0.44-0.06,0.61-0.16c0.03-0.02,0.12-0.07,0.1-0.12c-0.01-0.05-0.12-0.05-0.15-0.05
				c-0.05,0,0.04,0.01-0.03,0c-0.02,0-0.05-0.01-0.07-0.02c-0.04-0.01-0.02-0.01-0.01,0c-0.01,0-0.03-0.01-0.04-0.02
				c-0.03-0.01-0.05-0.02-0.07-0.04c-0.08-0.05-0.15-0.11-0.21-0.19c-0.12-0.17-0.18-0.38-0.18-0.59c0-0.1,0.02-0.2,0.05-0.3
				c0.02-0.05,0.04-0.09,0.06-0.13c0.01-0.02,0.03-0.04,0.04-0.06c0.01-0.01,0.02-0.02,0.03-0.03c0.02-0.03-0.03,0.03,0.01-0.01
				c0.05-0.05,0.1-0.09,0.15-0.13c-0.03,0.02,0.04-0.02,0.05-0.03c0.01-0.01,0.03-0.01,0.04-0.02c-0.07,0.04-0.01,0,0.01,0
				c0.1-0.04-0.05,0.01,0.02-0.01c0.01,0,0.13-0.04,0.06-0.02c-0.07,0.02,0.04-0.01,0.06-0.01c-0.09,0.04-0.06,0.01-0.03,0.01
				c0.03,0,0.05-0.01,0.08-0.01c0.01,0,0.04-0.01,0.05-0.01c-0.05,0.01-0.06,0.01-0.03,0c0.01,0,0.02,0,0.03,0
				c0.04-0.01,0.08-0.01,0.13-0.01c0.05,0,0.1-0.01,0.14-0.01c-0.01,0-0.05,0-0.01,0c0.03,0,0.05,0,0.08,0c0.18-0.01,0.37,0,0.55,0
				c0.2,0,0.44-0.06,0.61-0.16c0.03-0.02,0.12-0.07,0.1-0.12C82.49,34.24,82.39,34.25,82.36,34.25L82.36,34.25z"/>
		</g>
	</g>
	<g>
		<path class="st0" d="M80.43,40.24c-1.17-0.08-1.74,1.6-0.75,2.25"/>
		<g>
			<path class="st0" d="M80.7,40.04c-0.61-0.03-1.3,0.19-1.67,0.7c-0.26,0.37-0.38,0.85-0.24,1.29c0.08,0.25,0.25,0.47,0.47,0.62
				c0.15,0.1,0.41,0.04,0.57-0.03c0.06-0.02,0.4-0.19,0.25-0.29c-0.41-0.28-0.56-0.77-0.43-1.24c0.03-0.11,0.08-0.22,0.14-0.32
				c0.01-0.02,0.02-0.03,0-0.01c0.01-0.01,0.02-0.03,0.03-0.04c0.02-0.02,0.04-0.05,0.05-0.07c0.04-0.05,0.08-0.09,0.12-0.13
				c-0.06,0.06,0.01-0.01,0.03-0.02c0.02-0.02,0.05-0.04,0.07-0.05c-0.1,0.03-0.01,0.01,0.02-0.01c0.06-0.04-0.1,0.04,0,0
				c0.11-0.04-0.08,0.02,0,0c0.08-0.02-0.12,0.02,0,0c0.07-0.01-0.1,0,0.01,0c0.1,0-0.03,0,0.03,0c0.21,0.01,0.45-0.04,0.61-0.16
				C80.89,40.18,80.88,40.05,80.7,40.04L80.7,40.04z"/>
		</g>
	</g>
	<g>
		<path class="st0" d="M98.6,32.85c0.76,0.69,1.2,1.11,1.03,1.45c-0.16,0.34-0.69,1.05-1.1,0.84"/>
		<g>
			<path class="st0" d="M98.19,33.03c0.27,0.24,0.54,0.48,0.78,0.75c0.08,0.09,0.15,0.18,0.21,0.28c-0.03-0.06,0.01,0.02,0.01,0.03
				c0.01,0.02,0.01,0.03,0.02,0.05c0.01,0.02,0.01,0.04,0.02,0.07c0.01,0.06,0,0,0,0.01c0,0.02,0,0.04-0.01,0.06
				c-0.01,0.03-0.04,0.08,0,0.01c-0.03,0.04-0.05,0.09-0.07,0.14c-0.03,0.05-0.07,0.11-0.1,0.16c-0.02,0.02-0.03,0.05-0.05,0.07
				c-0.01,0.02-0.02,0.03-0.04,0.05c0.02-0.03,0.02-0.03,0,0c-0.05,0.05-0.09,0.1-0.14,0.15c-0.03,0.03-0.06,0.05-0.09,0.08
				c0.07-0.06,0.01-0.01-0.01,0c-0.1,0.07,0.05-0.02-0.02,0.01c-0.08,0.03,0.1-0.03,0.02-0.01c-0.05,0.01-0.03,0.01,0.05-0.01
				c0.07,0,0.09,0,0.04,0c0.06,0.01,0.07,0.01,0.03,0c-0.03-0.01-0.03-0.01,0.02,0.01c-0.19-0.09-0.45-0.05-0.62,0.07
				c-0.11,0.08-0.27,0.28-0.07,0.37c0.67,0.31,1.34-0.26,1.7-0.79c0.12-0.18,0.24-0.36,0.21-0.58c-0.02-0.2-0.17-0.39-0.29-0.54
				c-0.24-0.28-0.53-0.53-0.8-0.78c-0.15-0.14-0.41-0.11-0.58-0.03C98.32,32.7,98.04,32.88,98.19,33.03L98.19,33.03z"/>
		</g>
	</g>
	<g>
		<path class="st0" d="M96.86,38.7c0.48,0.38,0.91,0.85,1.06,1.4c0.15,0.55-0.04,1.19-0.58,1.43c-0.53,0.24-1.36-0.09-1.43-0.65"/>
		<g>
			<path class="st0" d="M96.52,38.94c0.6,0.48,1.3,1.31,0.9,2.08c-0.04,0.08-0.05,0.09-0.13,0.18c-0.03,0.03-0.03,0.03,0,0.01
				c-0.02,0.02-0.04,0.03-0.06,0.05c-0.04,0.03-0.04,0.03,0,0c-0.02,0.01-0.05,0.02-0.07,0.03c-0.05,0.02-0.04,0.02,0.02-0.01
				c-0.02,0.01-0.04,0.01-0.06,0.02c-0.09,0.03,0.08,0-0.02,0c-0.02,0-0.05,0-0.07,0c0.05,0,0.06,0,0.01,0
				c-0.05-0.01-0.09-0.01-0.14-0.02c0.08,0.02-0.06-0.02-0.07-0.02c-0.01,0-0.13-0.05-0.08-0.03c-0.07-0.03-0.14-0.08-0.2-0.13
				c-0.03-0.02-0.03-0.03-0.01-0.01c-0.02-0.02-0.03-0.03-0.04-0.05c-0.03-0.03-0.05-0.07-0.08-0.1c-0.02-0.03-0.02-0.04-0.01-0.01
				c-0.01-0.02-0.02-0.04-0.02-0.06c-0.01-0.04-0.02-0.08-0.03-0.12c-0.03-0.2-0.37-0.21-0.51-0.16c-0.18,0.05-0.39,0.18-0.36,0.4
				c0.06,0.38,0.38,0.65,0.72,0.79c0.41,0.17,0.89,0.17,1.3,0c0.83-0.35,1.11-1.32,0.74-2.11c-0.24-0.49-0.62-0.88-1.04-1.21
				C96.91,38.23,96.14,38.64,96.52,38.94L96.52,38.94z"/>
		</g>
	</g>
	<g>
		<path class="st0" d="M94.15,44.05c0.71,0.12,1.27,0.84,1.14,1.47c-0.13,0.63-0.91,1.04-1.61,0.84"/>
		<g>
			<path class="st0" d="M93.87,44.26c0.04,0.01,0.04,0.01,0.02,0c0.02,0.01,0.04,0.01,0.06,0.02c0.04,0.01,0.08,0.03,0.12,0.04
				c0.06,0.02,0.12,0.05,0.17,0.09c0.13,0.09,0.25,0.19,0.36,0.32c0.17,0.21,0.29,0.51,0.26,0.78c-0.01,0.13-0.07,0.27-0.13,0.36
				c-0.04,0.06-0.09,0.13-0.15,0.18c0.04-0.04-0.02,0.02-0.03,0.02c-0.01,0.01-0.12,0.08-0.04,0.03c-0.03,0.02-0.07,0.05-0.11,0.06
				c0.08-0.01,0.02-0.01-0.01,0c-0.05,0.02-0.04,0.02,0.03-0.01c-0.02,0.01-0.04,0.01-0.06,0.02c-0.05,0.01-0.04,0.01,0.03,0
				c-0.02,0-0.04,0.01-0.06,0.01c-0.05,0.01-0.09,0-0.02,0c-0.01,0-0.15,0-0.06,0c-0.04,0-0.09-0.01-0.13-0.01
				c-0.02,0-0.04-0.01-0.06-0.01c0.02,0.01,0.02,0-0.02-0.01c-0.2-0.05-0.44-0.01-0.61,0.1c-0.08,0.05-0.29,0.23-0.09,0.29
				c0.72,0.2,1.63-0.02,2.13-0.59c0.42-0.48,0.32-1.14-0.08-1.6c-0.25-0.28-0.59-0.45-0.96-0.52c-0.2-0.04-0.46,0.04-0.61,0.16
				c-0.05,0.04-0.11,0.09-0.09,0.16C93.73,44.23,93.82,44.25,93.87,44.26L93.87,44.26z"/>
		</g>
	</g>
</g>
<g id="Piano">
	<g>
		<path class="st0" d="M185.54,47.36c8.45-8.16,16.9-16.32,25.36-24.48c4.1-3.96,9.65-8.23,14.9-6.02
			c6.13,2.58,6.18,11.58,10.97,16.19c4.33,4.18,11.15,3.67,17.16,3.61c0.86-0.01,1.82,0.04,2.43,0.66c1.39,1.42-0.51,3.62-2.22,4.63
			c-6.57,3.88-13.32,7.44-20.23,10.68c-0.6-0.27-1.02-0.9-1.04-1.56"/>
		<g>
			<path class="st0" d="M185.9,47.47c6.67-6.44,13.33-12.87,20-19.31c3.12-3.01,6.13-6.32,9.69-8.84c3.25-2.3,7.5-3.97,11.17-1.54
				c2.46,1.62,3.72,4.48,4.84,7.09c1.11,2.58,2.13,5.29,3.95,7.47c4.65,5.57,12.2,4.34,18.6,4.61c1.32,0.06,2.63,0.75,2.1,2.25
				c-0.38,1.05-1.33,1.88-2.25,2.46c-2.15,1.37-4.44,2.58-6.68,3.81c-4.46,2.45-9,4.74-13.6,6.91c0.18,0,0.35,0,0.53,0
				c-0.58-0.33-0.86-0.77-0.95-1.43c-0.05-0.37-0.92-0.16-0.87,0.23c0.08,0.63,0.45,1.49,1.14,1.68c0.62,0.18,1.27-0.36,1.82-0.61
				c2.3-1.09,4.57-2.22,6.83-3.39c2.26-1.17,4.5-2.37,6.72-3.6c2.01-1.12,4.19-2.15,6.05-3.51c1.05-0.77,2.39-2.08,2.27-3.51
				c-0.14-1.65-2-1.88-3.3-1.88c-4.19,0-8.57,0.38-12.61-1c-3.83-1.31-6.03-4.26-7.65-7.81c-1.3-2.86-2.29-6.03-4.34-8.47
				c-2.1-2.5-5.25-3.57-8.45-2.91c-3.94,0.82-7.26,3.63-10.1,6.32c-8.61,8.18-17.1,16.51-25.64,24.76
				C184.79,47.61,185.64,47.73,185.9,47.47L185.9,47.47z"/>
		</g>
	</g>
	<g>
		<path class="st0" d="M217.06,31.33c0.21,11.13,2.62,22.22,7.04,32.44c-5.68-0.81-11.54-0.34-17.02,1.36
			c-2.47,0.77-4.87,1.78-7.39,2.39c-4.49,1.08-9.18,0.8-13.79,0.52"/>
		<g>
			<path class="st0" d="M216.63,31.37c0.25,11.19,2.63,22.23,7.04,32.51c0.2-0.13,0.4-0.26,0.6-0.39
				c-6.17-0.84-12.43-0.24-18.33,1.74c-3.13,1.05-6.16,2.21-9.47,2.57c-3.45,0.38-6.94,0.17-10.39-0.04
				c-0.37-0.02-0.91,0.51-0.32,0.55c3.22,0.19,6.45,0.39,9.67,0.13c3.1-0.25,6-1.08,8.92-2.11c6.38-2.24,12.86-3.21,19.6-2.29
				c0.15,0.02,0.71-0.13,0.6-0.39c-4.39-10.23-6.8-21.23-7.04-32.37C217.49,30.88,216.62,31.05,216.63,31.37L216.63,31.37z"/>
		</g>
	</g>
	<g>
		<path class="st0" d="M223.96,63.4c3.02,0.39,6.12,0.15,9.04-0.73c0.62-0.18,1.27-0.42,1.67-0.93c0.33-0.41,0.45-0.95,0.68-1.42
			c1.14-2.31,4.33-2.36,6.9-2.33c4.58,0.05,9.16-0.71,13.48-2.22c-3.38-1.28-6.93-2.12-10.53-2.48c-2.88-0.29-5.78-0.29-8.68-0.28
			c-4.03,0.01-8.07,0.02-12.1,0.03"/>
		<g>
			<path class="st0" d="M223.69,63.59c2.92,0.35,5.86,0.17,8.7-0.58c0.93-0.25,2.04-0.51,2.68-1.29c0.41-0.5,0.53-1.17,0.86-1.71
				c0.47-0.77,1.21-1.24,2.07-1.49c1.26-0.37,2.61-0.34,3.91-0.34c1.63,0.01,3.26-0.06,4.89-0.23c3.1-0.34,6.14-1.05,9.09-2.06
				c0.09-0.03,0.43-0.22,0.2-0.31c-10.06-3.74-20.95-2.77-31.48-2.75c-0.27,0-0.94,0.4-0.36,0.4c10.42-0.03,21.19-0.98,31.14,2.71
				c0.07-0.1,0.13-0.21,0.2-0.31c-3.25,1.12-6.63,1.83-10.06,2.06c-2.31,0.16-4.69-0.12-6.97,0.35c-1.66,0.34-3.07,1.11-3.78,2.71
				c-0.86,1.94-3.34,2.24-5.26,2.48c-1.75,0.21-3.51,0.18-5.27-0.03C224.02,63.17,223.24,63.54,223.69,63.59L223.69,63.59z"/>
		</g>
	</g>
	<g>
		<path class="st0" d="M219.18,52.71c-4.78-0.19-9.58-0.38-14.35-0.01c-3.64,0.28-7.25,0.88-10.78,1.8"/>
		<g>
			<path class="st0" d="M219.35,52.45c-8.58-0.34-16.99-0.32-25.37,1.82c-0.52,0.13-0.41,0.58,0.12,0.45
				c8.22-2.1,16.49-2.1,24.91-1.77C219.35,52.97,219.93,52.48,219.35,52.45L219.35,52.45z"/>
		</g>
	</g>
	<g>
		<path class="st0" d="M257.2,57.97c0,4.78,0,9.55,0,14.33c0,0.81-0.01,1.64-0.36,2.37c-0.8,1.62-2.89,1.98-4.66,2.29
			c-4.85,0.86-9.49,2.88-13.42,5.85"/>
		<g>
			<path class="st0" d="M256.76,58.09c0,3.46,0,6.92,0,10.38c0,1.67,0.17,3.45-0.05,5.11c-0.25,1.93-1.78,2.63-3.51,2.99
				c-2.62,0.54-5.17,1.1-7.66,2.13c-2.54,1.05-4.92,2.42-7.13,4.07c-0.38,0.28,0.49,0.24,0.68,0.09c2.74-2.04,5.78-3.65,9.03-4.7
				c1.53-0.49,3.08-0.81,4.65-1.11c1.06-0.2,2.16-0.45,3.1-1.01c2.4-1.43,1.75-4.69,1.75-7.06c0-3.71,0-7.41,0-11.12
				C257.63,57.64,256.76,57.79,256.76,58.09L256.76,58.09z"/>
		</g>
	</g>
	<g>
		<path class="st0" d="M250.85,77.3c-3.78,5.72-5.86,12.56-5.91,19.43c-0.02,2.94,0.32,5.89-0.09,8.8
			c-0.08,0.56-0.36,1.25-0.92,1.22c-0.4-0.03-0.65-0.43-0.82-0.8c-3.22-7-0.08-15.7-3.31-22.7"/>
		<g>
			<path class="st0" d="M250.42,77.38c-2.5,3.84-4.28,8.12-5.2,12.61c-0.43,2.11-0.67,4.27-0.71,6.42
				c-0.05,2.51,0.21,5.02,0.06,7.53c-0.04,0.63-0.04,1.35-0.21,1.95c-0.22,0.75-0.45,0.5-0.82-0.06c-0.56-0.85-0.81-2.12-1.03-3.09
				c-0.48-2.15-0.58-4.37-0.61-6.57c-0.06-4.4,0.15-8.91-1.67-13.03c-0.09-0.2-0.93,0.09-0.87,0.23c3.17,7.15-0.01,15.42,3.23,22.51
				c0.38,0.83,0.97,1.32,1.88,0.85c1.21-0.61,0.98-2.91,1-4c0.09-4.44-0.27-8.72,0.64-13.11c0.92-4.42,2.69-8.62,5.15-12.4
				C251.33,77.15,250.56,77.17,250.42,77.38L250.42,77.38z"/>
		</g>
	</g>
	<g>
		<path class="st0" d="M234.97,68.75c-0.37,5.28-0.73,10.57-1.1,15.85c-0.03,0.39-0.07,0.83-0.36,1.1c-0.2,0.19-0.48,0.27-0.74,0.33
			c-12.56,3.22-25.5,4.99-38.46,5.25c-5.83,0.12-11.89-0.02-17.22,2.34"/>
		<g>
			<path class="st0" d="M234.53,68.87c-0.35,5.04-0.7,10.07-1.04,15.11c-0.04,0.62,0.03,1.36-0.49,1.76
				c-0.45,0.35-1.11,0.4-1.66,0.54c-1.36,0.34-2.72,0.66-4.09,0.96c-2.35,0.52-4.7,0.98-7.07,1.4c-9.84,1.73-19.68,2.32-29.65,2.57
				c-4.67,0.12-9.36,0.53-13.69,2.39c-0.52,0.22,0.3,0.16,0.49,0.08c4.98-2.14,10.47-2.11,15.79-2.2c4.89-0.08,9.78-0.36,14.65-0.86
				c4.89-0.5,9.77-1.21,14.6-2.13c2.4-0.46,4.79-0.97,7.16-1.53c1.17-0.28,2.38-0.51,3.53-0.88c0.41-0.13,0.82-0.3,1.04-0.69
				c0.51-0.87,0.3-2.41,0.36-3.38c0.1-1.49,0.21-2.97,0.31-4.46c0.21-2.97,0.41-5.94,0.62-8.92
				C235.41,68.55,234.55,68.63,234.53,68.87L234.53,68.87z"/>
		</g>
	</g>
	<g>
		<path class="st0" d="M213.79,91.13c0.53,0.98-0.48,2.18-1.56,2.42s-2.21-0.08-3.32-0.05c-2.87,0.07-5.22,2.51-6.2,5.22
			s-0.91,5.65-1,8.52c-0.17,5.73-0.98,11.42-1.8,17.1c-0.24,1.64-0.5,3.36-1.47,4.7c-0.52,0.72-1.46,1.34-2.25,0.92
			c-0.67-0.36-0.8-1.24-0.84-2c-0.47-8.86,1.24-18.18-2.25-26.33"/>
		<g>
			<path class="st0" d="M213.36,91.25c0.25,0.67,0.04,1.38-0.55,1.82c-0.79,0.59-1.9,0.32-2.78,0.26c-0.86-0.06-1.71-0.02-2.54,0.23
				c-1.62,0.47-3,1.58-3.98,2.93c-2.88,4-2.07,9.62-2.39,14.26c-0.19,2.78-0.51,5.55-0.88,8.31c-0.34,2.58-0.53,5.3-1.21,7.82
				c-0.14,0.53-0.33,1.05-0.58,1.54c-0.13,0.25-0.36,0.75-0.61,0.91c-0.25,0.05-0.49,0.1-0.74,0.15c-0.54,0.35-0.89,0.24-1.06-0.32
				c-0.45-0.94-0.29-2.29-0.32-3.3c-0.05-2.54,0.03-5.08,0.07-7.62c0.09-5.66-0.04-11.4-2.25-16.7c-0.11-0.25-0.96,0.02-0.87,0.23
				c2.18,5.23,2.33,10.89,2.25,16.48c-0.04,2.84-0.14,5.68-0.05,8.52c0.05,1.52,0.08,4.07,2.3,3.47c2-0.54,2.66-2.93,2.99-4.71
				c0.54-2.98,0.89-6.02,1.25-9.03c0.35-2.94,0.63-5.9,0.73-8.86c0.11-2.99-0.05-6.11,1.01-8.97c0.53-1.42,1.39-2.76,2.58-3.72
				c1.56-1.27,3.12-1.18,5.01-1.09c1.51,0.07,4.29-0.75,3.5-2.82C214.13,90.76,213.27,91.02,213.36,91.25L213.36,91.25z"/>
		</g>
	</g>
	<g>
		<path class="st0" d="M169.65,90.23c-0.96,5.86-2.23,11.66-3.78,17.39c-0.18,0.65-0.38,1.34-0.87,1.8
			c-0.49,0.46-1.37,0.58-1.81,0.06c-0.28-0.34-0.29-0.81-0.29-1.25c0.03-5.03,0.07-10.05,0.1-15.08c0.01-1.14,0.01-2.31-0.34-3.39
			c-0.79-2.47-3.19-3.99-5.41-5.31c-4.48-2.66-6.55-3.88-11.03-6.53"/>
		<g>
			<path class="st0" d="M169.22,90.3c-0.71,4.27-1.56,8.52-2.59,12.73c-0.25,1.01-0.5,2.02-0.76,3.03
				c-0.21,0.81-0.32,2.04-0.83,2.75c-0.11,0.15-1.02,0.76-1.24,0.7c-0.3-0.09-0.37-0.49-0.43-0.74c-0.09-0.35-0.04-0.79-0.03-1.15
				c0-1.14,0.02-2.27,0.02-3.41c0.01-2.19,0.03-4.38,0.04-6.57c0.01-2.1,0.16-4.24,0-6.34c-0.28-3.67-3.27-5.55-6.16-7.26
				c-3.54-2.1-7.08-4.19-10.62-6.29c-0.22-0.13-0.94,0.23-0.82,0.3c3.47,2.06,6.94,4.11,10.42,6.17c1.63,0.97,3.36,1.93,4.64,3.36
				c1.61,1.79,1.71,3.87,1.69,6.16c-0.03,4.86-0.23,9.74-0.1,14.6c0.04,1.35,0.84,1.96,2.12,1.51c1.45-0.51,1.67-2.17,2.02-3.47
				c1.42-5.35,2.57-10.77,3.47-16.22C170.12,89.94,169.26,90.08,169.22,90.3L169.22,90.3z"/>
		</g>
	</g>
	<g>
		<path class="st0" d="M146.22,77.91c0.92-2.93-0.8-7.84,0.31-10.71c0.1-0.26,0.21-0.53,0.44-0.69c0.24-0.16,0.54-0.16,0.83-0.15
			c1.87,0.08,3.88,0.42,5.52-0.48c2.18-1.18,2.8-4.33,1.61-6.5c-0.18-0.32-0.39-0.65-0.39-1.01c-0.01-1.05,1.46-1.28,2.51-1.22
			c4.15,0.22,8.36-0.73,12.02-2.71"/>
		<g>
			<path class="st0" d="M146.66,77.87c0.92-3.24-0.61-6.64,0.08-9.9c0.1-0.46,0.2-1.12,0.73-1.3c0.42-0.14,1.24,0.07,1.7,0.09
				c0.79,0.04,1.58,0.07,2.37-0.03c1.37-0.18,2.65-0.78,3.47-1.92c0.8-1.1,1.09-2.52,0.91-3.86c-0.09-0.63-0.31-1.2-0.58-1.76
				c-0.95-1.94,1.14-1.73,2.39-1.71c4.02,0.07,7.99-0.92,11.53-2.81c0.52-0.28,0.05-0.72-0.38-0.49c-3.25,1.73-6.85,2.68-10.54,2.69
				c-1.5,0-5.11-0.18-3.98,2.38c0.62,1.39,0.98,2.66,0.48,4.18c-0.64,1.96-2.31,2.74-4.28,2.75c-1.09,0.01-2.78-0.5-3.77,0.09
				c-0.78,0.46-0.94,1.69-1.02,2.5c-0.31,3.04,0.88,6.18,0.03,9.17C145.67,78.34,146.55,78.24,146.66,77.87L146.66,77.87z"/>
		</g>
	</g>
	<g>
		<path class="st0" d="M173.52,92.36c-1.62-0.92-2.99-2.2-4.44-3.37c-5.52-4.46-12.18-7.22-18.74-9.92
			c-1.46-0.6-2.96-1.21-4.53-1.34"/>
		<g>
			<path class="st0" d="M173.85,92.1c-2.29-1.35-4.18-3.27-6.34-4.81c-2.14-1.53-4.43-2.84-6.78-4.03c-2.4-1.21-4.86-2.29-7.33-3.33
				c-2.39-1-4.84-2.25-7.45-2.53c-0.45-0.05-0.88,0.6-0.29,0.66c2.6,0.28,5.06,1.56,7.45,2.56c2.41,1.01,4.8,2.06,7.13,3.24
				c2.35,1.19,4.64,2.52,6.78,4.06c2.1,1.51,3.93,3.37,6.17,4.69C173.54,92.82,174.29,92.35,173.85,92.1L173.85,92.1z"/>
		</g>
	</g>
	<g>
		<path class="st0" d="M174.98,82.18c-1.8-0.63-3.21-2.04-4.82-3.07c-3.93-2.5-8.89-2.64-13.18-4.44c-2.05-0.86-3.92-2.08-5.75-3.33
			"/>
		<g>
			<path class="st0" d="M175.34,82c-2.09-0.8-3.65-2.47-5.59-3.53c-1.78-0.96-3.72-1.53-5.67-2.03c-2.01-0.51-4.06-0.94-6.01-1.67
				c-2.31-0.86-4.39-2.21-6.42-3.59c-0.22-0.15-0.98,0.2-0.81,0.31c1.85,1.25,3.74,2.49,5.81,3.36c2.04,0.86,4.21,1.33,6.35,1.86
				c2.16,0.54,4.33,1.14,6.28,2.25c1.85,1.06,3.35,2.62,5.37,3.39C174.85,82.45,175.64,82.11,175.34,82L175.34,82z"/>
		</g>
	</g>
	<g>
		<path class="st0" d="M174.65,82.68c2.79-0.55,5.55-1.32,8.23-2.28c0.87-0.31,1.8-0.7,2.23-1.52c0.66-1.25-0.18-2.73-0.98-3.89"/>
		<g>
			<path class="st0" d="M174.58,82.87c2.96-0.59,5.93-1.36,8.75-2.45c0.99-0.38,2.11-0.95,2.39-2.07c0.32-1.27-0.5-2.52-1.18-3.52
				c-0.13-0.19-0.97,0.08-0.81,0.31c0.63,0.91,1.39,2.1,1.15,3.26c-0.25,1.22-1.49,1.63-2.52,1.99c-2.49,0.87-5.04,1.56-7.62,2.08
				c-0.12,0.02-0.49,0.1-0.5,0.26C174.21,82.91,174.48,82.89,174.58,82.87L174.58,82.87z"/>
		</g>
	</g>
	<g>
		<path class="st0" d="M174.72,82.49c0.29,2.83,0.57,5.66,0.86,8.49c0.07,0.72,0.14,1.47-0.07,2.17c-0.21,0.7-0.78,1.33-1.51,1.39"
			/>
		<g>
			<path class="st0" d="M174.29,82.61c0.21,2.04,0.41,4.09,0.62,6.13c0.1,1,0.24,2.01,0.3,3.02c0.05,0.81-0.05,2.4-1.14,2.55
				c-0.41,0.06-0.73,0.55-0.12,0.47c0.82-0.11,1.5-0.58,1.87-1.33c0.48-1,0.24-2.22,0.14-3.28c-0.26-2.6-0.53-5.19-0.79-7.79
				C175.13,82.1,174.26,82.28,174.29,82.61L174.29,82.61z"/>
		</g>
	</g>
	<g>
		<path class="st0" d="M182.77,66.45c-2.25,0.18-4.39-0.87-6.45-1.8c-6.1-2.75-12.61-4.61-19.24-5.5"/>
		<g>
			<path class="st0" d="M182.96,66.28c-2.54,0.11-4.81-1.16-7.07-2.15c-1.9-0.83-3.84-1.57-5.81-2.22
				c-4.12-1.37-8.35-2.34-12.65-2.93c-0.2-0.03-0.94,0.3-0.72,0.33c4.6,0.63,9.13,1.7,13.52,3.22c2.29,0.79,4.5,1.74,6.71,2.73
				c1.82,0.81,3.63,1.45,5.64,1.36C182.81,66.61,183.53,66.25,182.96,66.28L182.96,66.28z"/>
		</g>
	</g>
	<g>
		<path class="st0" d="M189.4,63.51c-0.66-5.21,0.51-10.64,3.27-15.1c0.12-0.2,0.23-0.48,0.06-0.63c-0.07-0.06-0.18-0.08-0.27-0.09
			c-0.39-0.04-0.79-0.09-1.18-0.13c-5.88-0.65-11.76-1.29-17.64-1.94c-0.24-0.03-0.52-0.05-0.7,0.11c-0.22,0.18-0.22,0.51-0.21,0.8
			c0.2,3.74,0.09,7.8-2.18,10.78"/>
		<g>
			<path class="st0" d="M189.83,63.39c-0.41-3.47-0.07-6.99,1.04-10.31c0.57-1.68,1.49-3.11,2.2-4.72c0.56-1.27-1.6-1.02-2.39-1.11
				c-3.8-0.42-7.6-0.84-11.4-1.25c-1.84-0.2-3.77-0.59-5.63-0.61c-0.76-0.01-1.34,0.3-1.37,1.11c-0.08,1.88,0.14,3.71-0.13,5.6
				c-0.27,1.89-0.88,3.68-2.01,5.23c-0.2,0.27,0.65,0.18,0.8-0.02c2.08-2.85,2.37-6.41,2.26-9.83c-0.01-0.39-0.21-1.37,0.15-1.65
				c0.2-0.15,1.45,0.16,1.72,0.19c1,0.11,2.01,0.22,3.01,0.33c2.22,0.24,4.45,0.49,6.67,0.73c1.08,0.12,2.15,0.24,3.23,0.36
				c1.1,0.12,2.33,0.11,3.4,0.37c0.75,0.18,1.1,0.18,0.65,0.98c-0.19,0.33-0.37,0.65-0.55,0.98c-0.47,0.88-0.88,1.8-1.22,2.73
				c-1.32,3.55-1.75,7.37-1.3,11.12C188.99,63.85,189.87,63.67,189.83,63.39L189.83,63.39z"/>
		</g>
	</g>
</g>
<g id="Harp">
	<g>
		<path class="st0" d="M299.63,61.04c4.31,19.05,3.13,25.06,6,40.14c2.6,13.71,9.85,32.55,12.51,43.37"/>
		<g>
			<path class="st0" d="M299.34,61.12c1.34,5.93,2.42,11.91,3.14,17.95c0.55,4.64,0.92,9.29,1.53,13.92
				c1.53,11.69,4.94,22.87,8.53,34.07c1.86,5.82,3.84,11.63,5.31,17.57c0.07,0.28,0.65,0.12,0.58-0.16
				c-2.79-11.25-7.01-22.11-10.1-33.28c-1.51-5.47-2.7-10.99-3.5-16.6c-0.66-4.6-1.05-9.23-1.56-13.85
				c-0.74-6.66-1.88-13.25-3.35-19.78C299.86,60.69,299.28,60.84,299.34,61.12L299.34,61.12z"/>
		</g>
	</g>
	<g>
		<path class="st0" d="M299.63,61.04c-0.96-14.17,11.33-5.24,15.72-1.75c3.99,3.16,5.95,3.32,8.75,4.93
			c3.2,1.85,10.9,3.05,15.08,2.54c3.36-0.41,6.32-2.36,8.35-4.69c2.03-2.33,3.26-5.04,4.46-7.7"/>
		<g>
			<path class="st0" d="M299.92,61.02c-0.12-2.01-0.22-4.58,1.08-6.28c0.93-1.22,2.41-1.37,3.83-1.1c3.24,0.62,6.22,2.75,8.81,4.68
				c1.76,1.31,3.43,2.7,5.38,3.73c1.82,0.96,3.71,1.84,5.57,2.72c2.16,1.02,4.6,1.53,6.95,1.89c2.41,0.37,4.92,0.61,7.35,0.36
				c7.02-0.73,10.74-6.75,13.38-12.59c0.14-0.3-0.45-0.3-0.55-0.07c-1.46,3.23-3.01,6.53-5.7,8.94c-2.4,2.15-5.31,3.31-8.52,3.38
				c-2.75,0.06-5.53-0.3-8.21-0.9c-2.4-0.54-4.37-1.5-6.56-2.54c-2.54-1.2-4.9-2.35-7.14-4.1c-1.14-0.89-2.29-1.76-3.49-2.56
				c-2.39-1.6-5.3-3.45-8.28-3.48c-4.27-0.04-4.67,4.72-4.47,7.98C299.35,61.37,299.94,61.28,299.92,61.02L299.92,61.02z"/>
		</g>
	</g>
	<g>
		<path class="st0" d="M364.28,75.86c-3.23,8.02-5.85,16.38-7.81,24.95c-0.73,3.19-1.37,6.42-2.42,9.49
			c-0.84,2.47-1.94,4.82-2.9,7.23c-2.15,5.4-3.58,11.15-5.01,16.87c-1.27,5.07-2.53,10.13-3.8,15.2"/>
		<g>
			<path class="st0" d="M363.99,75.92c-3.73,9.3-6.38,18.85-8.64,28.6c-0.56,2.42-1.19,4.81-2.06,7.13
				c-0.84,2.22-1.84,4.38-2.69,6.59c-1.8,4.67-3.07,9.51-4.29,14.35c-1.43,5.68-2.84,11.37-4.26,17.05
				c-0.03,0.1,0.54,0.03,0.57-0.11c1.25-4.99,2.49-9.97,3.74-14.96c1.21-4.86,2.42-9.73,4.08-14.45c1.62-4.6,3.8-8.93,5-13.68
				c1.22-4.83,2.21-9.71,3.58-14.5c1.57-5.47,3.42-10.86,5.55-16.15C364.6,75.73,364.05,75.77,363.99,75.92L363.99,75.92z"/>
		</g>
	</g>
	<g>
		<path class="st0" d="M347.64,80.4c0.68,5.27,1.36,10.54,2.04,15.81"/>
		<g>
			<path class="st0" d="M347.35,80.47c0.68,5.27,1.36,10.54,2.04,15.81c0.03,0.2,0.61,0.07,0.58-0.16
				c-0.68-5.27-1.36-10.54-2.04-15.81C347.91,80.12,347.32,80.25,347.35,80.47L347.35,80.47z"/>
		</g>
	</g>
	<g>
		<path class="st0" d="M340.63,79.9c2.13,10.18,3.45,20.55,3.94,30.93"/>
		<g>
			<path class="st0" d="M340.34,79.97c2.12,10.19,3.43,20.53,3.94,30.93c0.01,0.21,0.59,0.09,0.58-0.16
				c-0.51-10.4-1.83-20.73-3.94-30.93C340.87,79.59,340.29,79.74,340.34,79.97L340.34,79.97z"/>
		</g>
	</g>
	<g>
		<path class="st0" d="M331.48,78.8c1.48,15.56,3.71,31.05,6.67,46.4"/>
		<g>
			<path class="st0" d="M331.19,78.88c1.49,15.56,3.72,31.05,6.67,46.4c0.03,0.17,0.62,0.03,0.58-0.16
				c-2.95-15.35-5.18-30.84-6.67-46.4C331.76,78.56,331.17,78.68,331.19,78.88L331.19,78.88z"/>
		</g>
	</g>
	<g>
		<path class="st0" d="M320.36,76.62c1.81,14.25,4.2,28.43,7.15,42.48c1.18,5.64,2.5,11.36,5.22,16.34"/>
		<g>
			<path class="st0" d="M320.07,76.69c1.31,10.28,2.91,20.53,4.82,30.72c0.92,4.95,1.88,9.9,2.99,14.81
				c1.03,4.59,2.32,9.14,4.57,13.3c0.1,0.19,0.66-0.01,0.58-0.16c-2.24-4.16-3.53-8.71-4.57-13.3c-1.11-4.91-2.07-9.86-2.99-14.81
				c-1.9-10.19-3.5-20.43-4.82-30.72C320.62,76.36,320.04,76.49,320.07,76.69L320.07,76.69z"/>
		</g>
	</g>
	<g>
		<path class="st0" d="M319.27,150.46c0.07,2.38-0.39,4.73-0.4,7.11s0.54,4.96,2.21,6.55c1.69,1.6,4.09,1.83,6.3,1.76
			c3.63-0.12,7.27-0.86,10.47-2.63c3.2-1.77,5.95-4.62,7.31-8.23"/>
		<g>
			<path class="st0" d="M318.98,150.54c0.07,4-1.37,8.49,0.71,12.23c1.76,3.16,5.42,3.4,8.65,3.18c7.21-0.49,14.33-3.94,17.11-10.97
				c0.04-0.1-0.51-0.05-0.57,0.1c-2.87,7.27-10.39,10.66-17.87,10.7c-3.49,0.02-6.43-1.33-7.43-4.89c-0.97-3.44,0.04-7.02-0.02-10.5
				C319.56,150.29,318.98,150.37,318.98,150.54L318.98,150.54z"/>
		</g>
	</g>
</g>
</svg>
